<svg width="354" height="84" viewBox="0 0 354 84" fill="none" xmlns="http://www.w3.org/2000/svg">
<rect opacity="0.15" width="354" height="84" rx="42" fill="#49ACF3"/>
<path d="M92.722 26.6V56H87.934V31.388H74.788V56H70V26.6H92.722ZM105.566 56.798C104.082 56.798 102.682 56.518 101.366 55.958C100.078 55.398 98.9445 54.642 97.9645 53.69C96.9845 52.71 96.2145 51.576 95.6545 50.288C95.0945 48.972 94.8145 47.572 94.8145 46.088V36.47C94.8145 34.986 95.0945 33.6 95.6545 32.312C96.2145 31.024 96.9845 29.89 97.9645 28.91C98.9445 27.93 100.078 27.16 101.366 26.6C102.682 26.04 104.082 25.76 105.566 25.76C107.05 25.76 108.436 26.04 109.724 26.6C111.04 27.16 112.174 27.93 113.126 28.91C114.106 29.89 114.876 31.024 115.436 32.312C115.996 33.6 116.276 34.986 116.276 36.47V46.088C116.276 47.572 115.996 48.972 115.436 50.288C114.876 51.576 114.106 52.71 113.126 53.69C112.174 54.642 111.04 55.398 109.724 55.958C108.436 56.518 107.05 56.798 105.566 56.798ZM105.566 30.59C104.754 30.59 103.984 30.744 103.256 31.052C102.528 31.36 101.898 31.78 101.366 32.312C100.834 32.844 100.414 33.474 100.106 34.202C99.7985 34.902 99.6445 35.658 99.6445 36.47V46.088C99.6445 46.9 99.7985 47.67 100.106 48.398C100.414 49.098 100.834 49.714 101.366 50.246C101.898 50.778 102.528 51.198 103.256 51.506C103.984 51.814 104.754 51.968 105.566 51.968C106.378 51.968 107.134 51.814 107.834 51.506C108.562 51.198 109.192 50.778 109.724 50.246C110.256 49.714 110.676 49.098 110.984 48.398C111.292 47.67 111.446 46.9 111.446 46.088V36.47C111.446 35.658 111.292 34.902 110.984 34.202C110.676 33.474 110.256 32.844 109.724 32.312C109.192 31.78 108.562 31.36 107.834 31.052C107.134 30.744 106.378 30.59 105.566 30.59ZM147.578 51.212V60.284H142.832V56H121.832V60.284H117.086V51.212C118.934 51.212 120.432 50.876 121.58 50.204C122.728 49.532 123.61 48.636 124.226 47.516C124.87 46.368 125.304 45.052 125.528 43.568C125.752 42.056 125.864 40.46 125.864 38.78V26.6H143.168V51.212H147.578ZM130.568 38.78C130.568 44.184 129.532 48.328 127.46 51.212H138.422V31.346H130.568V38.78ZM159.101 26.6C160.473 26.6 161.747 26.866 162.923 27.398C164.127 27.902 165.177 28.602 166.073 29.498C166.969 30.366 167.669 31.402 168.173 32.606C168.705 33.81 168.971 35.084 168.971 36.428C168.971 37.772 168.705 39.046 168.173 40.25C167.669 41.454 166.969 42.504 166.073 43.4C165.177 44.268 164.127 44.968 162.923 45.5C161.747 46.004 160.473 46.256 159.101 46.256H154.439V56H149.693V26.6H159.101ZM159.101 41.51C159.801 41.51 160.459 41.384 161.075 41.132C161.719 40.852 162.265 40.488 162.713 40.04C163.189 39.564 163.553 39.018 163.805 38.402C164.085 37.786 164.225 37.128 164.225 36.428C164.225 35.728 164.085 35.07 163.805 34.454C163.553 33.838 163.189 33.306 162.713 32.858C162.265 32.382 161.733 32.018 161.117 31.766C160.501 31.486 159.829 31.346 159.101 31.346H154.439V41.51H159.101ZM181.815 56.798C180.331 56.798 178.931 56.518 177.615 55.958C176.327 55.398 175.193 54.642 174.213 53.69C173.233 52.71 172.463 51.576 171.903 50.288C171.343 48.972 171.062 47.572 171.062 46.088V36.47C171.062 34.986 171.343 33.6 171.903 32.312C172.463 31.024 173.233 29.89 174.213 28.91C175.193 27.93 176.327 27.16 177.615 26.6C178.931 26.04 180.331 25.76 181.815 25.76C183.299 25.76 184.685 26.04 185.973 26.6C187.289 27.16 188.423 27.93 189.375 28.91C190.355 29.89 191.125 31.024 191.685 32.312C192.245 33.6 192.525 34.986 192.525 36.47V46.088C192.525 47.572 192.245 48.972 191.685 50.288C191.125 51.576 190.355 52.71 189.375 53.69C188.423 54.642 187.289 55.398 185.973 55.958C184.685 56.518 183.299 56.798 181.815 56.798ZM181.815 30.59C181.003 30.59 180.233 30.744 179.505 31.052C178.777 31.36 178.147 31.78 177.615 32.312C177.083 32.844 176.663 33.474 176.355 34.202C176.047 34.902 175.893 35.658 175.893 36.47V46.088C175.893 46.9 176.047 47.67 176.355 48.398C176.663 49.098 177.083 49.714 177.615 50.246C178.147 50.778 178.777 51.198 179.505 51.506C180.233 51.814 181.003 51.968 181.815 51.968C182.627 51.968 183.383 51.814 184.083 51.506C184.811 51.198 185.441 50.778 185.973 50.246C186.505 49.714 186.925 49.098 187.233 48.398C187.541 47.67 187.695 46.9 187.695 46.088V36.47C187.695 35.658 187.541 34.902 187.233 34.202C186.925 33.474 186.505 32.844 185.973 32.312C185.441 31.78 184.811 31.36 184.083 31.052C183.383 30.744 182.627 30.59 181.815 30.59ZM206.617 38.696C207.821 38.696 208.955 38.934 210.019 39.41C211.083 39.858 212.007 40.474 212.791 41.258C213.575 42.042 214.191 42.966 214.639 44.03C215.115 45.066 215.353 46.172 215.353 47.348C215.353 48.552 215.115 49.686 214.639 50.75C214.191 51.786 213.575 52.696 212.791 53.48C212.007 54.264 211.083 54.88 210.019 55.328C208.955 55.776 207.821 56 206.617 56H194.605V26.6H212.539V31.346H199.351V38.696H206.617ZM206.617 51.254C207.737 51.254 208.675 50.876 209.431 50.12C210.215 49.364 210.607 48.44 210.607 47.348C210.607 46.256 210.215 45.346 209.431 44.618C208.675 43.862 207.737 43.484 206.617 43.484H199.351V51.254H206.617ZM240.173 26.6V56H235.385V43.694H222.239V56H217.451V26.6H222.239V38.906H235.385V26.6H240.173ZM247.012 31.346V38.906H260.83V43.694H247.012V51.254H260.83V56H242.266V26.6H260.83V31.346H247.012ZM267.684 31.346V38.906H281.502V43.694H267.684V51.254H281.502V56H262.938V26.6H281.502V31.346H267.684Z" fill="#49ACF3"/>
</svg>
