<svg width="225" height="110" viewBox="0 0 225 110" fill="none" xmlns="http://www.w3.org/2000/svg">
<path d="M12.22 82.36H4.33V85.15H12.22V82.36ZM13.66 100H10.6V92.26L3.58 100H1V87.28H4.06V94.9L10.96 87.28H13.66V100ZM21.6604 100.57C20.7604 100.57 19.9104 100.39 19.1104 100.03C18.3304 99.69 17.6404 99.22 17.0404 98.62C16.4604 98.02 16.0004 97.32 15.6604 96.52C15.3204 95.72 15.1504 94.86 15.1504 93.94C15.1504 93.02 15.3204 92.16 15.6604 91.36C16.0004 90.54 16.4604 89.83 17.0404 89.23C17.6404 88.63 18.3304 88.16 19.1104 87.82C19.9104 87.46 20.7604 87.28 21.6604 87.28C22.5604 87.28 23.4004 87.46 24.1804 87.82C24.9804 88.16 25.6704 88.63 26.2504 89.23C26.8504 89.83 27.3204 90.54 27.6604 91.36C28.0004 92.16 28.1704 93.02 28.1704 93.94C28.1704 94.86 28.0004 95.72 27.6604 96.52C27.3204 97.32 26.8504 98.02 26.2504 98.62C25.6704 99.22 24.9804 99.69 24.1804 100.03C23.4004 100.39 22.5604 100.57 21.6604 100.57ZM21.6604 90.34C21.1804 90.34 20.7304 90.44 20.3104 90.64C19.9104 90.82 19.5504 91.08 19.2304 91.42C18.9104 91.74 18.6604 92.12 18.4804 92.56C18.3004 92.98 18.2104 93.44 18.2104 93.94C18.2104 94.44 18.3004 94.91 18.4804 95.35C18.6604 95.77 18.9104 96.15 19.2304 96.49C19.5504 96.81 19.9104 97.07 20.3104 97.27C20.7304 97.45 21.1804 97.54 21.6604 97.54C22.1404 97.54 22.5804 97.45 22.9804 97.27C23.4004 97.07 23.7704 96.81 24.0904 96.49C24.4104 96.15 24.6604 95.77 24.8404 95.35C25.0204 94.91 25.1104 94.44 25.1104 93.94C25.1104 93.44 25.0204 92.98 24.8404 92.56C24.6604 92.12 24.4104 91.74 24.0904 91.42C23.7704 91.08 23.4004 90.82 22.9804 90.64C22.5804 90.44 22.1404 90.34 21.6604 90.34ZM37.8116 87.28V90.34H32.7416V100H29.6816V87.28H37.8116ZM49.2888 88.54H52.1688V100H51.0888L49.6788 99.01C49.0988 99.51 48.4488 99.89 47.7288 100.15C47.0288 100.43 46.2788 100.57 45.4788 100.57C44.5788 100.57 43.7288 100.39 42.9287 100.03C42.1488 99.69 41.4588 99.22 40.8588 98.62C40.2788 98.02 39.8188 97.32 39.4788 96.52C39.1388 95.72 38.9688 94.86 38.9688 93.94C38.9688 93.02 39.1388 92.16 39.4788 91.36C39.8188 90.54 40.2788 89.83 40.8588 89.23C41.4588 88.63 42.1488 88.16 42.9287 87.82C43.7288 87.46 44.5788 87.28 45.4788 87.28C46.1788 87.28 46.8488 87.39 47.4888 87.61C48.1488 87.83 48.7488 88.14 49.2888 88.54ZM45.4788 97.54C45.9588 97.54 46.3988 97.45 46.7988 97.27C47.2188 97.07 47.5888 96.81 47.9088 96.49C48.2288 96.15 48.4788 95.77 48.6588 95.35C48.8388 94.91 48.9288 94.44 48.9288 93.94C48.9288 93.44 48.8388 92.98 48.6588 92.56C48.4788 92.12 48.2288 91.74 47.9088 91.42C47.5888 91.08 47.2188 90.82 46.7988 90.64C46.3988 90.44 45.9588 90.34 45.4788 90.34C44.9988 90.34 44.5488 90.44 44.1288 90.64C43.7288 90.82 43.3688 91.08 43.0488 91.42C42.7288 91.74 42.4788 92.12 42.2988 92.56C42.1188 92.98 42.0288 93.44 42.0288 93.94C42.0288 94.44 42.1188 94.91 42.2988 95.35C42.4788 95.77 42.7288 96.15 43.0488 96.49C43.3688 96.81 43.7288 97.07 44.1288 97.27C44.5488 97.45 44.9988 97.54 45.4788 97.54ZM70.6769 100.57C69.7769 100.57 68.9269 100.4 68.1269 100.06C67.3469 99.74 66.6369 99.27 65.9969 98.65C65.3569 98.01 64.8669 97.29 64.5269 96.49C64.2069 95.69 64.0469 94.84 64.0469 93.94C64.0469 93.04 64.2069 92.19 64.5269 91.39C64.8669 90.59 65.3569 89.87 65.9969 89.23C67.2969 87.93 68.8569 87.28 70.6769 87.28C71.5769 87.28 72.4269 87.45 73.2269 87.79C74.0269 88.11 74.7469 88.59 75.3869 89.23L73.2269 91.39C72.8669 91.03 72.4669 90.77 72.0269 90.61C71.5869 90.43 71.1369 90.34 70.6769 90.34C70.2369 90.34 69.7969 90.43 69.3569 90.61C68.9169 90.77 68.5169 91.03 68.1569 91.39C67.7969 91.75 67.5269 92.15 67.3469 92.59C67.1869 93.03 67.1069 93.48 67.1069 93.94C67.1069 94.4 67.1869 94.85 67.3469 95.29C67.5269 95.73 67.7969 96.12 68.1569 96.46C68.5169 96.82 68.9169 97.09 69.3569 97.27C69.7969 97.43 70.2369 97.51 70.6769 97.51C71.1369 97.51 71.5869 97.43 72.0269 97.27C72.4669 97.09 72.8669 96.82 73.2269 96.46L75.3869 98.65C74.7469 99.27 74.0269 99.74 73.2269 100.06C72.4269 100.4 71.5769 100.57 70.6769 100.57ZM93.88 100.57C92.98 100.57 92.13 100.4 91.33 100.06C90.55 99.74 89.84 99.27 89.2 98.65C88.56 98.01 88.07 97.29 87.73 96.49C87.41 95.69 87.25 94.84 87.25 93.94C87.25 93.04 87.41 92.19 87.73 91.39C88.07 90.59 88.56 89.87 89.2 89.23C90.5 87.93 92.06 87.28 93.88 87.28C94.78 87.28 95.63 87.45 96.43 87.79C97.23 88.11 97.95 88.59 98.59 89.23L96.43 91.39C96.07 91.03 95.67 90.77 95.23 90.61C94.79 90.43 94.34 90.34 93.88 90.34C93.44 90.34 93 90.43 92.56 90.61C92.12 90.77 91.72 91.03 91.36 91.39C91 91.75 90.73 92.15 90.55 92.59C90.39 93.03 90.31 93.48 90.31 93.94C90.31 94.4 90.39 94.85 90.55 95.29C90.73 95.73 91 96.12 91.36 96.46C91.72 96.82 92.12 97.09 92.56 97.27C93 97.43 93.44 97.51 93.88 97.51C94.34 97.51 94.79 97.43 95.23 97.27C95.67 97.09 96.07 96.82 96.43 96.46L98.59 98.65C97.95 99.27 97.23 99.74 96.43 100.06C95.63 100.4 94.78 100.57 93.88 100.57ZM110.402 88.54H113.282V100H112.202L110.792 99.01C110.212 99.51 109.562 99.89 108.842 100.15C108.142 100.43 107.392 100.57 106.592 100.57C105.692 100.57 104.842 100.39 104.042 100.03C103.262 99.69 102.572 99.22 101.972 98.62C101.392 98.02 100.932 97.32 100.592 96.52C100.252 95.72 100.082 94.86 100.082 93.94C100.082 93.02 100.252 92.16 100.592 91.36C100.932 90.54 101.392 89.83 101.972 89.23C102.572 88.63 103.262 88.16 104.042 87.82C104.842 87.46 105.692 87.28 106.592 87.28C107.292 87.28 107.962 87.39 108.602 87.61C109.262 87.83 109.862 88.14 110.402 88.54ZM106.592 97.54C107.072 97.54 107.512 97.45 107.912 97.27C108.332 97.07 108.702 96.81 109.022 96.49C109.342 96.15 109.592 95.77 109.772 95.35C109.952 94.91 110.042 94.44 110.042 93.94C110.042 93.44 109.952 92.98 109.772 92.56C109.592 92.12 109.342 91.74 109.022 91.42C108.702 91.08 108.332 90.82 107.912 90.64C107.512 90.44 107.072 90.34 106.592 90.34C106.112 90.34 105.662 90.44 105.242 90.64C104.842 90.82 104.482 91.08 104.162 91.42C103.842 91.74 103.592 92.12 103.412 92.56C103.232 92.98 103.142 93.44 103.142 93.94C103.142 94.44 103.232 94.91 103.412 95.35C103.592 95.77 103.842 96.15 104.162 96.49C104.482 96.81 104.842 97.07 105.242 97.27C105.662 97.45 106.112 97.54 106.592 97.54ZM127.749 87.28H130.839V100H127.779V93.46L124.089 100H121.539L117.849 93.46V100H114.789V87.28H117.879L122.829 96.01L127.749 87.28ZM138.848 100.57C137.948 100.57 137.098 100.39 136.298 100.03C135.518 99.69 134.828 99.22 134.228 98.62C133.648 98.02 133.188 97.32 132.848 96.52C132.508 95.72 132.338 94.86 132.338 93.94C132.338 93.02 132.508 92.16 132.848 91.36C133.188 90.54 133.648 89.83 134.228 89.23C134.828 88.63 135.518 88.16 136.298 87.82C137.098 87.46 137.948 87.28 138.848 87.28C139.748 87.28 140.588 87.46 141.368 87.82C142.168 88.16 142.858 88.63 143.438 89.23C144.038 89.83 144.508 90.54 144.848 91.36C145.188 92.16 145.358 93.02 145.358 93.94C145.358 94.86 145.188 95.72 144.848 96.52C144.508 97.32 144.038 98.02 143.438 98.62C142.858 99.22 142.168 99.69 141.368 100.03C140.588 100.39 139.748 100.57 138.848 100.57ZM138.848 90.34C138.368 90.34 137.918 90.44 137.498 90.64C137.098 90.82 136.738 91.08 136.418 91.42C136.098 91.74 135.848 92.12 135.668 92.56C135.488 92.98 135.398 93.44 135.398 93.94C135.398 94.44 135.488 94.91 135.668 95.35C135.848 95.77 136.098 96.15 136.418 96.49C136.738 96.81 137.098 97.07 137.498 97.27C137.918 97.45 138.368 97.54 138.848 97.54C139.328 97.54 139.768 97.45 140.168 97.27C140.588 97.07 140.958 96.81 141.278 96.49C141.598 96.15 141.848 95.77 142.028 95.35C142.208 94.91 142.298 94.44 142.298 93.94C142.298 93.44 142.208 92.98 142.028 92.56C141.848 92.12 141.598 91.74 141.278 91.42C140.958 91.08 140.588 90.82 140.168 90.64C139.768 90.44 139.328 90.34 138.848 90.34ZM158.869 94.72H149.929C149.949 95.5 150.239 96.17 150.799 96.73C151.379 97.27 152.079 97.54 152.899 97.54C153.639 97.54 154.299 97.3 154.879 96.82C155.179 96.58 155.419 96.29 155.599 95.95L158.299 97.36C157.939 98.06 157.449 98.67 156.829 99.19C155.689 100.11 154.379 100.57 152.899 100.57C152.059 100.57 151.269 100.41 150.529 100.09C149.809 99.79 149.179 99.38 148.639 98.86C148.099 98.32 147.669 97.69 147.349 96.97C147.029 96.25 146.869 95.48 146.869 94.66V93.07C146.889 92.27 147.059 91.52 147.379 90.82C147.699 90.12 148.129 89.51 148.669 88.99C149.209 88.45 149.839 88.03 150.559 87.73C151.299 87.43 152.079 87.28 152.899 87.28C153.599 87.28 154.269 87.4 154.909 87.64C155.569 87.86 156.159 88.18 156.679 88.6C157.219 89 157.669 89.49 158.029 90.07C158.409 90.63 158.679 91.24 158.839 91.9L158.869 92.08V94.72ZM155.449 91.66C155.169 91.26 154.799 90.94 154.339 90.7C153.899 90.46 153.419 90.34 152.899 90.34C152.379 90.34 151.899 90.46 151.459 90.7C151.019 90.94 150.659 91.26 150.379 91.66H155.449ZM173.875 96.94H176.725V103.06H173.635V100H163.465V103.06H160.375V96.82C161.375 96.82 162.145 96.65 162.685 96.31C163.245 95.97 163.645 95.58 163.885 95.14C164.145 94.68 164.295 94.22 164.335 93.76C164.375 93.3 164.395 92.94 164.395 92.68V87.28H173.875V96.94ZM167.485 90.37V92.68C167.485 93.64 167.375 94.46 167.155 95.14C166.955 95.82 166.695 96.42 166.375 96.94H170.785V90.37H167.485ZM188.537 88.54H191.417V100H190.337L188.927 99.01C188.347 99.51 187.697 99.89 186.977 100.15C186.277 100.43 185.527 100.57 184.727 100.57C183.827 100.57 182.977 100.39 182.177 100.03C181.397 99.69 180.707 99.22 180.107 98.62C179.527 98.02 179.067 97.32 178.727 96.52C178.387 95.72 178.217 94.86 178.217 93.94C178.217 93.02 178.387 92.16 178.727 91.36C179.067 90.54 179.527 89.83 180.107 89.23C180.707 88.63 181.397 88.16 182.177 87.82C182.977 87.46 183.827 87.28 184.727 87.28C185.427 87.28 186.097 87.39 186.737 87.61C187.397 87.83 187.997 88.14 188.537 88.54ZM184.727 97.54C185.207 97.54 185.647 97.45 186.047 97.27C186.467 97.07 186.837 96.81 187.157 96.49C187.477 96.15 187.727 95.77 187.907 95.35C188.087 94.91 188.177 94.44 188.177 93.94C188.177 93.44 188.087 92.98 187.907 92.56C187.727 92.12 187.477 91.74 187.157 91.42C186.837 91.08 186.467 90.82 186.047 90.64C185.647 90.44 185.207 90.34 184.727 90.34C184.247 90.34 183.797 90.44 183.377 90.64C182.977 90.82 182.617 91.08 182.297 91.42C181.977 91.74 181.727 92.12 181.547 92.56C181.367 92.98 181.277 93.44 181.277 93.94C181.277 94.44 181.367 94.91 181.547 95.35C181.727 95.77 181.977 96.15 182.297 96.49C182.617 96.81 182.977 97.07 183.377 97.27C183.797 97.45 184.247 97.54 184.727 97.54ZM205.884 87.28H208.974V100H205.914V93.46L202.224 100H199.674L195.984 93.46V100H192.924V87.28H196.014L200.964 96.01L205.884 87.28ZM223.133 100H220.073V92.26L213.053 100H210.473V87.28H213.533V94.9L220.433 87.28H223.133V100Z" fill="#979797"/>
<path d="M12.22 51.36H4.33V54.15H12.22V51.36ZM13.66 69H10.6V61.26L3.58 69H1V56.28H4.06V63.9L10.96 56.28H13.66V69ZM21.6604 69.57C20.7604 69.57 19.9104 69.39 19.1104 69.03C18.3304 68.69 17.6404 68.22 17.0404 67.62C16.4604 67.02 16.0004 66.32 15.6604 65.52C15.3204 64.72 15.1504 63.86 15.1504 62.94C15.1504 62.02 15.3204 61.16 15.6604 60.36C16.0004 59.54 16.4604 58.83 17.0404 58.23C17.6404 57.63 18.3304 57.16 19.1104 56.82C19.9104 56.46 20.7604 56.28 21.6604 56.28C22.5604 56.28 23.4004 56.46 24.1804 56.82C24.9804 57.16 25.6704 57.63 26.2504 58.23C26.8504 58.83 27.3204 59.54 27.6604 60.36C28.0004 61.16 28.1704 62.02 28.1704 62.94C28.1704 63.86 28.0004 64.72 27.6604 65.52C27.3204 66.32 26.8504 67.02 26.2504 67.62C25.6704 68.22 24.9804 68.69 24.1804 69.03C23.4004 69.39 22.5604 69.57 21.6604 69.57ZM21.6604 59.34C21.1804 59.34 20.7304 59.44 20.3104 59.64C19.9104 59.82 19.5504 60.08 19.2304 60.42C18.9104 60.74 18.6604 61.12 18.4804 61.56C18.3004 61.98 18.2104 62.44 18.2104 62.94C18.2104 63.44 18.3004 63.91 18.4804 64.35C18.6604 64.77 18.9104 65.15 19.2304 65.49C19.5504 65.81 19.9104 66.07 20.3104 66.27C20.7304 66.45 21.1804 66.54 21.6604 66.54C22.1404 66.54 22.5804 66.45 22.9804 66.27C23.4004 66.07 23.7704 65.81 24.0904 65.49C24.4104 65.15 24.6604 64.77 24.8404 64.35C25.0204 63.91 25.1104 63.44 25.1104 62.94C25.1104 62.44 25.0204 61.98 24.8404 61.56C24.6604 61.12 24.4104 60.74 24.0904 60.42C23.7704 60.08 23.4004 59.82 22.9804 59.64C22.5804 59.44 22.1404 59.34 21.6604 59.34ZM37.8116 56.28V59.34H32.7416V69H29.6816V56.28H37.8116ZM49.2888 57.54H52.1688V69H51.0888L49.6788 68.01C49.0988 68.51 48.4488 68.89 47.7288 69.15C47.0288 69.43 46.2788 69.57 45.4788 69.57C44.5788 69.57 43.7288 69.39 42.9287 69.03C42.1488 68.69 41.4588 68.22 40.8588 67.62C40.2788 67.02 39.8188 66.32 39.4788 65.52C39.1388 64.72 38.9688 63.86 38.9688 62.94C38.9688 62.02 39.1388 61.16 39.4788 60.36C39.8188 59.54 40.2788 58.83 40.8588 58.23C41.4588 57.63 42.1488 57.16 42.9287 56.82C43.7288 56.46 44.5788 56.28 45.4788 56.28C46.1788 56.28 46.8488 56.39 47.4888 56.61C48.1488 56.83 48.7488 57.14 49.2888 57.54ZM45.4788 66.54C45.9588 66.54 46.3988 66.45 46.7988 66.27C47.2188 66.07 47.5888 65.81 47.9088 65.49C48.2288 65.15 48.4788 64.77 48.6588 64.35C48.8388 63.91 48.9288 63.44 48.9288 62.94C48.9288 62.44 48.8388 61.98 48.6588 61.56C48.4788 61.12 48.2288 60.74 47.9088 60.42C47.5888 60.08 47.2188 59.82 46.7988 59.64C46.3988 59.44 45.9588 59.34 45.4788 59.34C44.9988 59.34 44.5488 59.44 44.1288 59.64C43.7288 59.82 43.3688 60.08 43.0488 60.42C42.7288 60.74 42.4788 61.12 42.2988 61.56C42.1188 61.98 42.0288 62.44 42.0288 62.94C42.0288 63.44 42.1188 63.91 42.2988 64.35C42.4788 64.77 42.7288 65.15 43.0488 65.49C43.3688 65.81 43.7288 66.07 44.1288 66.27C44.5488 66.45 44.9988 66.54 45.4788 66.54ZM67.1069 63.63V69H64.0469V56.28H67.1069V61.53L71.0369 56.28H74.8769L70.1669 62.58L74.9369 69H71.1269L67.1069 63.63ZM76.9795 69.27L76.4395 66.27C77.2995 66.11 77.9795 65.69 78.4795 65.01C78.9795 64.33 79.3595 63.56 79.6195 62.7C79.8795 61.82 80.0395 60.93 80.0995 60.03C80.1795 59.13 80.2195 58.39 80.2195 57.81V56.28H90.5695V69H87.5095V59.34H83.2495C83.0895 61.7 82.6395 63.66 81.8995 65.22C81.3795 66.36 80.6995 67.27 79.8595 67.95C79.0195 68.63 78.0595 69.07 76.9795 69.27ZM104.714 56.28H108.134L96.134 80.49H92.714L98.384 69L92.084 56.28H95.504L100.094 65.55L104.714 56.28ZM116.143 56.25C117.043 56.25 117.883 56.43 118.663 56.79C119.463 57.13 120.153 57.6 120.733 58.2C121.333 58.8 121.803 59.51 122.143 60.33C122.483 61.13 122.653 61.99 122.653 62.91C122.653 63.83 122.483 64.7 122.143 65.52C121.803 66.32 121.333 67.02 120.733 67.62C120.153 68.22 119.463 68.69 118.663 69.03C117.883 69.39 117.043 69.57 116.143 69.57C115.243 69.57 114.403 69.39 113.623 69.03C112.843 68.69 112.153 68.22 111.553 67.62C110.973 67.02 110.513 66.32 110.173 65.52C109.833 64.7 109.663 63.83 109.663 62.91V60.51C109.623 59.41 109.703 58.42 109.903 57.54C110.103 56.64 110.373 55.84 110.713 55.14C111.053 54.44 111.443 53.85 111.883 53.37C112.323 52.87 112.763 52.48 113.203 52.2L113.383 52.08L119.053 50.4L119.923 53.34L114.703 54.87C114.083 55.33 113.603 56.02 113.263 56.94C113.703 56.72 114.163 56.55 114.643 56.43C115.123 56.31 115.623 56.25 116.143 56.25ZM119.623 63.06V62.76C119.623 62.28 119.533 61.84 119.353 61.44C119.173 61.02 118.923 60.65 118.603 60.33C118.303 60.01 117.943 59.76 117.523 59.58C117.103 59.4 116.653 59.31 116.173 59.31C115.693 59.31 115.243 59.4 114.823 59.58C114.423 59.76 114.063 60.01 113.743 60.33C113.423 60.65 113.173 61.02 112.993 61.44C112.813 61.84 112.723 62.28 112.723 62.76V63.06C112.723 63.54 112.813 63.99 112.993 64.41C113.173 64.83 113.423 65.2 113.743 65.52C114.063 65.82 114.423 66.06 114.823 66.24C115.243 66.42 115.693 66.51 116.173 66.51C116.653 66.51 117.103 66.42 117.523 66.24C117.943 66.06 118.303 65.82 118.603 65.52C118.923 65.2 119.173 64.83 119.353 64.41C119.533 63.99 119.623 63.54 119.623 63.06Z" fill="#2C2C2C"/>
<path d="M20.722 25.12C18.86 22.27 15.288 24.702 12.97 25.424C11.678 25.804 9.512 26.07 9.588 24.018C9.664 21.624 12.134 22.916 13.502 22.992C15.554 23.068 17.112 21.472 17.226 19.382C17.302 17.33 15.934 15.848 14.414 14.708C8.942 10.604 0.506 17.596 1.228 24.056C1.646 27.59 2.406 30.858 5.294 33.214C8.448 35.798 12.286 35.874 15.934 34.316C18.822 33.138 23.04 28.654 20.722 25.12ZM41.6167 28.806C42.3387 26.032 40.0967 22.612 36.7527 23.524C35.3087 23.904 34.9287 25.386 33.8267 23.828C33.2947 23.068 33.4087 20.788 33.3707 19.914C33.1427 16.798 33.4467 13.112 31.6987 10.414C29.3427 6.766 26.6067 9.616 26.0747 10.908C24.9727 13.606 25.1627 18.546 25.7707 22.65C26.2647 25.804 25.3147 30.136 27.1387 32.872C30.5967 38.116 40.1727 34.24 41.6167 28.806ZM60.3064 28.426C60.0024 28.882 57.7604 31.276 57.4184 29.832C56.9244 27.856 61.9404 26.032 60.3064 28.426ZM74.6704 20.37C72.6564 12.922 66.3484 7.792 58.5204 8.856C50.6924 9.958 44.0424 18.166 44.3464 25.956C44.7264 34.164 51.6424 41.498 60.1924 40.472C61.8644 40.282 64.3724 39.636 64.8284 37.622C65.3224 35.342 63.3464 35.722 61.8264 35.988C58.7864 36.482 54.7204 36.71 52.1364 34.582C45.0304 28.768 48.5644 18.204 55.6704 14.556C59.2804 12.694 63.9544 12.694 67.0704 15.62C69.3124 17.748 72.1624 23.22 69.1604 25.956C66.7664 28.122 66.6904 24.588 66.6144 23.106C66.5384 21.206 65.8924 18.926 64.5624 17.482C62.2444 14.974 58.8244 14.708 56.2784 16.988C55.0624 18.09 53.6944 20.522 54.6444 22.194C55.8984 24.436 57.6844 22.498 58.9764 21.814C60.0404 21.244 62.4344 21.396 61.2944 23.068C60.6104 24.056 58.9004 23.486 57.8744 23.638C54.1504 24.17 51.9844 27.932 52.8584 31.542C53.9224 35.798 57.5704 35.152 60.6484 33.518C64.0684 31.694 68.3244 33.328 71.5164 31.352C74.7464 29.338 75.6204 23.714 74.6704 20.37ZM97.9635 23.676C98.6855 21.358 99.2175 16.836 97.5075 14.746C95.1895 11.934 91.6555 14.29 90.5155 16.798C89.5655 18.812 89.9835 21.472 88.8815 23.334C88.1215 24.626 86.1075 25.766 85.4995 23.942C84.7775 21.852 87.7795 19.648 86.9815 17.254C86.3355 15.392 84.2455 14.404 82.4215 15.012C79.2295 16.038 78.3555 20.18 77.9755 23.068C77.4815 26.944 79.2675 31.732 82.6875 33.936C90.1735 38.838 96.1395 29.68 97.9635 23.676ZM107.238 21.548C108.682 20.522 111.76 25.918 110.392 26.26C109.214 26.526 105.832 22.498 107.238 21.548ZM104.198 31.124C107.276 34.126 112.634 36.026 116.966 35.076C121.108 34.202 121.64 29.718 122.818 26.298C124.262 22.118 126.808 17.634 126.58 13.112C126.352 7.982 121.336 7.108 118.6 11.136C116.282 14.556 117.574 18.698 115.826 22.156C115.066 23.752 114.724 23.676 114.306 22.156C113.774 20.294 113.926 18.66 112.596 17.064C109.67 13.568 104.426 14.404 102.526 18.432C100.626 22.422 100.968 27.97 104.198 31.124Z" fill="#49ACF3"/>
</svg>
